
<?xml version="1.0" encoding="UTF-8"?>
<svg width="1009.6" height="189.5" version="1.1" viewBox="0 0 1009.6 189.5" xml:space="preserve" xmlns="http://www.w3.org/2000/svg"><defs><clipPath id="clipPath55"><path d="M 0,595.28 H 841.89 V 0 H 0 Z"/></clipPath></defs><g transform="matrix(1.3333 0 0 -1.3333 -56.477 491.6)"><g clip-path="url(#clipPath55)"><g transform="translate(138.45 299.06)"><path d="m0 0c-4.955-1.914-9.152-3.782-12.586-5.608-3.435-1.826-6.194-3.652-8.281-5.478-2.087-1.825-3.587-3.651-4.5-5.477s-1.369-3.697-1.369-5.608c0-2.87 0.956-5.217 2.869-7.043 1.911-1.826 4.435-2.739 7.564-2.739 2.261 0 4.37 0.564 6.326 1.695 1.956 1.129 3.672 2.674 5.152 4.63 1.477 1.957 2.651 4.26 3.521 6.913 0.868 2.651 1.304 5.455 1.304 8.412zm0 5.608v5.348c0 10.606-4.521 15.911-13.564 15.911-1.479 0-2.739-0.13-3.782-0.391s-1.913-0.697-2.608-1.304c-0.697-0.61-1.327-1.48-1.892-2.609-0.566-1.131-1.108-2.523-1.629-4.173-0.959-2.523-1.892-4.196-2.805-5.022-0.912-0.827-2.239-1.239-3.978-1.239-4.348 0-6.521 2.173-6.521 6.521 0 4.174 2.217 7.412 6.652 9.717 4.434 2.303 10.737 3.456 18.911 3.456 8.693 0 14.868-1.545 18.52-4.63 3.652-3.087 5.478-8.326 5.478-15.716v-29.214c0-9.912 1.956-14.868 5.868-14.868 1.217 0 2.391 0.15 3.522 0.457 1.129 0.303 2.087 1.108 2.869 2.412l1.826-3.13c-1.043-2.001-2.957-3.674-5.739-5.021-2.783-1.347-5.695-2.021-8.738-2.021-3.827 0-6.673 1.218-8.542 3.651-1.871 2.433-2.804 5.869-2.804 10.304h-0.653c-2.261-4.262-5.392-7.63-9.39-10.109-4-2.478-8.435-3.716-13.303-3.716-5.478 0-9.782 1.389-12.911 4.173-3.131 2.782-4.695 6.521-4.695 11.216 0 2.087 0.368 4.086 1.108 6 0.738 1.911 1.934 3.737 3.587 5.478 1.65 1.738 3.824 3.456 6.521 5.151 2.694 1.696 5.999 3.412 9.912 5.152z" fill="#231f20"/></g><g transform="translate(195.16 281.19)"><path d="m0 0c0-3.566 0.085-6.391 0.26-8.477 0.174-2.087 0.63-3.675 1.37-4.761 0.738-1.088 1.803-1.805 3.195-2.151 1.39-0.349 3.347-0.61 5.869-0.783v-4.565h-34.692v4.565c2.521 0.085 4.52 0.326 5.999 0.717 1.478 0.391 2.609 1.109 3.392 2.152 0.782 1.043 1.281 2.543 1.5 4.499 0.215 1.957 0.325 4.585 0.325 7.891v15.259c0 5.912-0.065 10.52-0.195 13.825-0.13 3.304-0.567 5.739-1.305 7.304-0.739 1.565-1.89 2.498-3.456 2.804-1.565 0.303-3.739 0.456-6.521 0.456v4.565l22.824 4.956 1.826-16.172h0.522c1.129 2.608 2.543 4.998 4.238 7.173 1.696 2.172 3.542 4.02 5.543 5.543 1.999 1.52 4.086 2.716 6.26 3.586 2.173 0.868 4.39 1.305 6.652 1.305 2.781 0 4.976-0.675 6.586-2.022 1.608-1.349 2.413-3.153 2.413-5.412 0-2.087-0.652-3.717-1.956-4.891s-3.175-1.761-5.608-1.761c-1.392 0-2.566 0.173-3.522 0.522-0.958 0.346-1.805 0.717-2.543 1.109-0.74 0.39-1.434 0.76-2.087 1.108-0.652 0.346-1.369 0.521-2.152 0.521-2.347 0-4.695-1.499-7.043-4.499-2.347-3-4.173-6.804-5.477-11.412-0.697-2.522-1.239-5.37-1.63-8.543-0.392-3.174-0.587-6.5-0.587-9.977z" fill="#231f20"/></g><g transform="translate(257.8 281.32)"><path d="m0 0c0-3.652 0.085-6.521 0.261-8.608 0.173-2.086 0.629-3.674 1.369-4.76 0.738-1.089 1.803-1.806 3.196-2.152 1.389-0.349 3.346-0.61 5.868-0.783v-4.564h-34.692v4.564c2.521 0.173 4.52 0.434 5.999 0.783 1.478 0.346 2.609 1.043 3.392 2.087 0.782 1.043 1.281 2.543 1.5 4.499 0.215 1.957 0.325 4.585 0.325 7.89v16.694c0 4.957-0.065 9.085-0.195 12.391-0.13 3.303-0.371 5.563-0.717 6.782-0.261 1.129-0.567 2.021-0.913 2.673-0.349 0.652-0.914 1.174-1.696 1.565-0.782 0.392-1.806 0.652-3.065 0.783-1.261 0.13-2.892 0.196-4.891 0.196v4.564l21.259 4.956 1.695-13.042h0.653c3.912 4.434 10.724 13.042 21.957 13.042 5.478 0 10.085-1.108 13.825-3.325 3.737-2.217 6.346-5.413 7.825-9.587h0.522c3.216 4.086 11.547 12.912 22.989 12.912 4.086 0 7.803-0.674 11.151-2.021 3.346-1.349 5.89-3.196 7.63-5.543 1.565-2.002 2.674-4.63 3.326-7.891 0.651-3.26 0.978-7.717 0.978-13.368v-20.737c0-3.566 0.108-6.391 0.326-8.477 0.216-2.087 0.672-3.697 1.369-4.826 0.695-1.131 1.761-1.871 3.196-2.217 1.434-0.349 3.411-0.61 5.934-0.783v-4.564h-34.692v4.564c2.433 0.086 4.389 0.326 5.868 0.717 1.478 0.392 2.609 1.129 3.392 2.218 0.782 1.086 1.281 2.586 1.5 4.499 0.215 1.912 0.325 4.52 0.325 7.825v16.433c0 4.957-0.261 9.15-0.782 12.587-0.522 3.433-1.392 6.215-2.608 8.346-1.219 2.13-2.805 3.672-4.761 4.63-1.956 0.956-4.326 1.435-7.108 1.435-7.97 0-13.253-8.173-15.164-11.738-0.436-0.87-0.805-1.718-1.108-2.543-0.306-0.828-0.544-1.74-0.717-2.739-0.176-1.001-0.284-2.196-0.327-3.586-0.044-1.392-0.065-3.131-0.065-5.217v-16.564c0-3.566 0.086-6.391 0.261-8.477 0.173-2.087 0.63-3.697 1.369-4.826 0.738-1.131 1.847-1.871 3.326-2.217 1.477-0.349 3.477-0.61 5.999-0.783v-4.564h-34.692v4.564c2.433 0.173 4.389 0.434 5.869 0.783 1.478 0.346 2.586 1.043 3.326 2.087 0.738 1.043 1.216 2.543 1.435 4.499 0.216 1.957 0.326 4.585 0.326 7.89v16.433c0 5.043-0.261 9.281-0.783 12.717-0.521 3.433-1.369 6.215-2.543 8.347-1.174 2.129-2.719 3.651-4.63 4.565-1.913 0.913-4.261 1.369-7.043 1.369-5.683 0-12.394-8.173-14.132-11.738-0.436-0.87-0.805-1.718-1.108-2.543-0.306-0.828-0.545-1.74-0.718-2.739-0.175-1.001-0.283-2.196-0.326-3.586-0.045-1.392-0.065-3.131-0.065-5.217z" fill="#231f20"/></g><g transform="translate(514.13 297.62)"><path d="m0 0c-7.303-3.305-12.803-6.37-16.498-9.195-3.696-2.826-5.542-5.76-5.542-8.803 0-2.523 0.695-4.522 2.086-6 1.39-1.479 3.129-2.217 5.217-2.217 2.087 0 4.043 0.369 5.868 1.109 1.827 0.737 3.392 1.716 4.696 2.935 1.304 1.216 2.326 2.673 3.065 4.368 0.737 1.696 1.108 3.499 1.108 5.413zm0 6.912v5.478c0 5.042-0.892 8.716-2.673 11.02-1.784 2.303-4.545 3.457-8.282 3.457-2.523 0-4.434-0.674-5.738-2.022-1.305-1.349-2.523-3.586-3.652-6.717-0.783-2.174-1.892-3.869-3.326-5.086-1.435-1.219-3.413-1.826-5.935-1.826-2.434 0-4.303 0.738-5.607 2.217-1.305 1.478-1.957 3.565-1.957 6.261 0 4.173 2.283 7.477 6.847 9.912 4.566 2.433 11.456 3.652 20.672 3.652 9.738 0 16.694-1.761 20.868-5.282 4.173-3.522 6.26-9.414 6.26-17.672v-28.563c0-7.391 1.477-11.086 4.435-11.086 1.65 0 3.173 0.565 4.564 1.696l1.956-3.782c-1.218-2.175-3.11-3.893-5.673-5.152-2.566-1.26-5.457-1.891-8.673-1.891-4.001 0-7.043 1.219-9.13 3.651-2.086 2.433-3.13 5.869-3.13 10.304h-0.651c-2.524-4.522-5.784-7.956-9.783-10.304-4-2.347-8.564-3.521-13.693-3.521-5.478 0-9.87 1.543-13.173 4.63-3.306 3.085-4.956 7.108-4.956 12.064 0 3.825 1.695 7.412 5.086 10.76 3.391 3.346 9.043 6.629 16.955 9.846z" fill="#ed1f24"/></g><g transform="translate(575.8 281.84)"><path d="m0 0c0-3.566 0.109-6.37 0.326-8.412 0.217-2.044 0.695-3.632 1.435-4.761 0.738-1.131 1.868-1.87 3.39-2.217 1.521-0.348 3.588-0.609 6.196-0.782v-5.217h-41.082v5.217c2.608 0.173 4.695 0.434 6.259 0.782 1.566 0.347 2.739 1.044 3.522 2.087 0.782 1.043 1.282 2.543 1.5 4.499 0.216 1.957 0.326 4.585 0.326 7.891v53.603c0 5.217-0.065 9.326-0.196 12.325-0.13 3-0.371 5.282-0.718 6.847-0.261 1.129-0.566 2.022-0.912 2.674-0.349 0.652-0.893 1.174-1.63 1.565-0.741 0.391-1.741 0.652-3 0.782-1.261 0.131-2.849 0.196-4.761 0.196v4.826l29.084 4.956v-48.126h0.522c2.694 3.564 7.871 10.304 18.805 10.304 8.52 0 15.128-2.609 19.823-7.826 2.26-2.608 4.043-5.761 5.348-9.455 1.303-3.697 1.956-7.544 1.956-11.543v-20.215c0-3.652 0.085-6.501 0.261-8.543 0.173-2.044 0.629-3.609 1.369-4.695 0.738-1.088 1.846-1.805 3.326-2.152 1.477-0.348 3.521-0.609 6.13-0.782v-5.217h-40.822v5.217c2.609 0.085 4.672 0.326 6.195 0.717 1.519 0.391 2.694 1.109 3.521 2.152 0.825 1.043 1.347 2.543 1.565 4.499 0.216 1.957 0.326 4.585 0.326 7.891v16.042c0 9.215-1 15.736-3 19.563-2.001 3.825-5.434 5.738-10.303 5.738-7.618 0-12.696-10.217-13.522-13.172-0.827-2.957-1.239-6.26-1.239-9.912z" fill="#ed1f24"/></g><g transform="translate(630.07 322.4)"><path d="m0 0v5.869c5.217 1.477 9.586 3.717 13.107 6.717s6.15 6.456 7.891 10.369h6.651v-15.782h14.998v-7.173h-14.998v-40.039c0-5.393 0.586-9.217 1.761-11.477 1.174-2.262 3.151-3.391 5.934-3.391 3.391 0 5.954 1.565 7.695 4.695l2.738-3.782c-2.435-6.175-8.173-9.26-17.215-9.26-6 0-10.674 1.389-14.02 4.173-3.349 2.782-5.022 6.694-5.022 11.738v47.343z" fill="#ed1f24"/></g><g transform="translate(690.26 358.53)"><path d="m0 0c0 2.869 0.978 5.282 2.934 7.238 1.957 1.956 4.325 2.935 7.108 2.935 2.87 0 5.283-0.979 7.239-2.935s2.934-4.369 2.934-7.238c0-2.783-0.978-5.151-2.934-7.108s-4.369-2.935-7.239-2.935c-2.783 0-5.151 0.978-7.108 2.935-1.956 1.957-2.934 4.325-2.934 7.108m19.172-76.688c0-3.478 0.131-6.26 0.391-8.347 0.261-2.087 0.783-3.697 1.565-4.826 0.782-1.131 1.911-1.891 3.392-2.282 1.476-0.391 3.476-0.632 5.998-0.717v-5.217h-41.082v5.217c2.432 0.085 4.412 0.368 5.934 0.848 1.52 0.476 2.694 1.259 3.521 2.347 0.826 1.086 1.39 2.609 1.696 4.565 0.303 1.956 0.457 4.455 0.457 7.499v16.042c0 5.042-0.088 9.195-0.261 12.455-0.176 3.261-0.392 5.498-0.653 6.717-0.435 2.172-1.414 3.607-2.935 4.304-1.522 0.695-4.283 1.043-8.281 1.043v4.435l30.258 4.956z" fill="#ed1f24"/></g><g transform="translate(723.97 267.63)"><path d="m0 0c0 2.434 0.824 4.478 2.479 6.13 1.649 1.65 3.651 2.479 5.998 2.479 2.434 0 4.478-0.829 6.131-2.479 1.65-1.652 2.478-3.696 2.478-6.13 0-2.348-0.828-4.349-2.478-5.999-1.653-1.652-3.697-2.479-6.131-2.479-2.347 0-4.349 0.827-5.998 2.479-1.655 1.65-2.479 3.651-2.479 5.999" fill="#ed1f24"/></g><g transform="translate(741.06 303.68)"><path d="m0 0h9.506v6.055c0 6.449 1.695 11.482 5.088 15.1 3.391 3.616 8.23 5.424 14.511 5.424 3.474 0 6.306-0.534 8.493-1.598 2.186-1.066 3.282-2.439 3.282-4.121 0-1.122-0.352-2.06-1.051-2.819-0.703-0.755-1.585-1.134-2.651-1.134-0.673 0-1.386 0.211-2.146 0.63-0.755 0.421-1.75 1.136-2.985 2.146-1.402 1.177-2.495 1.948-3.281 2.312-0.785 0.365-1.71 0.547-2.775 0.547-3.364 0-5.775-1.711-7.233-5.131-0.506-1.121-0.856-2.496-1.05-4.121-0.198-1.628-0.296-3.87-0.296-6.729v-6.561h13.541v-3.953h-13.541v-25.739c0-2.073 0.127-3.784 0.379-5.13 0.251-1.345 0.7-2.425 1.345-3.238s1.528-1.374 2.652-1.683c1.119-0.308 2.577-0.489 4.372-0.546v-2.944h-23.888v2.944c1.569 0.057 2.832 0.21 3.784 0.463 0.954 0.252 1.683 0.728 2.189 1.43 0.504 0.701 0.84 1.681 1.008 2.944 0.168 1.262 0.253 2.958 0.253 5.088v26.411h-9.506z" fill="#231f20"/></g><g transform="translate(782.04 314.18)"><path d="m0 0c0 1.46 0.504 2.693 1.514 3.703 1.009 1.006 2.241 1.512 3.701 1.512 1.456 0 2.689-0.506 3.699-1.512 1.011-1.01 1.515-2.243 1.515-3.703s-0.504-2.691-1.515-3.701c-1.01-1.009-2.243-1.512-3.699-1.512-1.46 0-2.692 0.503-3.701 1.512-1.01 1.01-1.514 2.241-1.514 3.701m9.673-40.359c0-2.187 0.096-3.938 0.294-5.257 0.195-1.318 0.573-2.354 1.134-3.111s1.348-1.276 2.355-1.557c1.01-0.282 2.356-0.448 4.039-0.504v-2.944h-24.14v2.944c1.683 0.056 3.056 0.237 4.122 0.546 1.063 0.308 1.893 0.813 2.48 1.515 0.589 0.7 0.982 1.683 1.178 2.944 0.195 1.261 0.295 2.873 0.295 4.836v10.767c0 3.25-0.043 5.929-0.126 8.032-0.086 2.102-0.241 3.545-0.464 4.331-0.281 1.29-0.925 2.173-1.935 2.65-1.008 0.474-2.916 0.715-5.718 0.715v2.944l16.486 3.195z" fill="#231f20"/></g><g transform="translate(428.96 295.01)"><path d="m0 0c0-19.859-16.095-35.943-35.947-35.943-19.855 0-35.952 16.084-35.952 35.943 0 19.862 16.097 35.947 35.952 35.947 19.852 0 35.947-16.085 35.947-35.947" fill="#231f20"/></g><g transform="translate(415.19 292.93)"><path d="m0 0c1.983 1.147 1.983 3.026 0 4.172l-34.457 19.891c-1.987 1.144-3.61 0.208-3.61-2.083v-39.788c0-2.29 1.623-3.23 3.61-2.083z" fill="#fff"/></g><g transform="translate(87.956 260.19)"><path d="m0 0c0-10.856-2.28-19.172-6.839-24.949-4.561-5.775-11.185-8.663-19.868-8.663-5.558 0-10.097 1.107-13.615 3.322s-5.276 5.146-5.276 8.794c0 1.999 0.586 3.517 1.758 4.559 1.173 1.043 2.802 1.564 4.886 1.564 1.563 0 2.758-0.369 3.583-1.107 0.826-0.737 1.889-2.411 3.192-5.016 1.217-2.606 2.345-4.342 3.387-5.211 1.042-0.868 2.649-1.303 4.82-1.303 4.17 0 7.079 1.433 8.729 4.299 1.649 2.866 2.476 7.905 2.476 15.113v45.337c0 5.037-0.066 9.185-0.196 12.442s-0.371 5.492-0.716 6.709c-0.436 1.997-1.433 3.365-2.997 4.104-1.563 0.737-4.517 1.108-8.859 1.108v4.56l25.535 4.95z" fill="#231f20"/></g><g transform="translate(458.21 281.82)"><path d="m0 0c0-3.475 0.13-6.253 0.391-8.338s0.782-3.693 1.563-4.821c0.782-1.129 1.91-1.888 3.388-2.279 1.475-0.391 3.472-0.632 5.992-0.717v-5.211h-41.038v5.211c2.43 0.085 4.407 0.368 5.928 0.847 1.519 0.476 2.691 1.258 3.517 2.345 0.825 1.085 1.389 2.606 1.694 4.56 0.304 1.954 0.456 4.45 0.456 7.491v53.806c0 5.036-0.088 9.185-0.261 12.442-0.174 3.257-0.39 5.492-0.651 6.709-0.436 2.17-1.413 3.603-2.931 4.299-1.521 0.695-4.279 1.043-8.273 1.043v4.429l30.225 4.951z" fill="#ed1c24"/></g><g transform="translate(71.204 358.53)"><path d="m0 0c0 2.869 0.978 5.282 2.934 7.238 1.957 1.956 4.325 2.935 7.108 2.935 2.87 0 5.283-0.979 7.239-2.935s2.934-4.369 2.934-7.238c0-2.783-0.978-5.151-2.934-7.108s-4.369-2.935-7.239-2.935c-2.783 0-5.151 0.978-7.108 2.935-1.956 1.957-2.934 4.325-2.934 7.108" fill="#ed1f24"/></g></g></g></svg>
